<svg width="7" height="12" viewBox="0 0 7 12" fill="none" xmlns="http://www.w3.org/2000/svg">
<path id="SF Symbol / chevron.right" d="M7 6.00334C7 6.27713 6.89971 6.50417 6.68577 6.71786L1.53773 11.7462C1.3639 11.9199 1.15664 12 0.909265 12C0.407832 12 0 11.606 0 11.1052C0 10.8581 0.106972 10.6311 0.287488 10.4508L4.86055 6.01002L0.287488 1.55593C0.106972 1.37563 0 1.15526 0 0.901503C0 0.400668 0.407832 0 0.909265 0C1.15664 0 1.3639 0.0868111 1.53773 0.260434L6.68577 5.28881C6.9064 5.5025 7 5.72955 7 6.00334Z" fill="#D3D3D9"/>
</svg>
