<svg width="9" height="15" viewBox="0 0 9 15" fill="none" xmlns="http://www.w3.org/2000/svg">
<path id="SF Symbol / chevron.right" opacity="0.4" d="M0 7.49583C0 7.15359 0.12894 6.86978 0.404012 6.60267L7.02292 0.317195C7.24642 0.100167 7.51289 0 7.83095 0C8.47564 0 9 0.492487 9 1.11853C9 1.42738 8.86246 1.71119 8.63037 1.93656L2.75072 7.48748L8.63037 13.0551C8.86246 13.2805 9 13.5559 9 13.8731C9 14.4992 8.47564 15 7.83095 15C7.51289 15 7.24642 14.8915 7.02292 14.6745L0.404012 8.38898C0.120344 8.12187 0 7.83806 0 7.49583Z" fill="black"/>
</svg>
