<svg width="12" height="12" viewBox="0 0 12 12" fill="none" xmlns="http://www.w3.org/2000/svg">
<g id="Group" opacity="0.3">
<g id="Group_2">
<g id="Group_3">
<path id="Vector" d="M6.79621 6L11.8294 0.966824C12.0569 0.739336 12.0569 0.398104 11.8294 0.170616C11.6019 -0.056872 11.2607 -0.056872 11.0332 0.170616L6 5.20379L0.966824 0.170616C0.739336 -0.056872 0.398104 -0.056872 0.170616 0.170616C-0.056872 0.398104 -0.056872 0.739336 0.170616 0.966824L5.20379 6L0.170616 11.0332C-0.056872 11.2607 -0.056872 11.6019 0.170616 11.8294C0.28436 11.9431 0.42654 12 0.56872 12C0.7109 12 0.85308 11.9431 0.966824 11.8294L6 6.79621L11.0332 11.8294C11.1469 11.9431 11.2891 12 11.4313 12C11.5735 12 11.7156 11.9431 11.8294 11.8294C12.0569 11.6019 12.0569 11.2607 11.8294 11.0332L6.79621 6Z" fill="black"/>
</g>
</g>
</g>
</svg>
