<svg width="32" height="28" viewBox="0 0 32 28" fill="none" xmlns="http://www.w3.org/2000/svg">
<g id="Group 597">
<path id="Vector" d="M29.5986 18.416C29.5586 18.3764 29.5186 18.3368 29.4786 18.2972C29.4386 18.2575 29.4386 18.2179 29.3986 18.2179C29.3587 18.2179 29.3587 18.2179 29.3187 18.2179C29.2787 18.2179 29.2787 18.1783 29.2387 18.1783H25.0791C25.0391 18.1783 25.0391 18.2179 24.9991 18.2179C24.9191 18.2179 24.8791 18.2575 24.8391 18.2972C24.7591 18.3764 24.7191 18.3764 24.6791 18.3764C24.6791 18.416 24.6391 18.416 24.6391 18.4556C22.8793 21.4655 19.5996 23.2873 16.16 23.2873C12.9603 23.2873 10.0406 21.7031 8.20079 19.1288H9.80063C9.96061 19.1288 10.1606 19.0496 10.2006 18.8516C10.2806 18.6932 10.2406 18.4952 10.1206 18.3764L5.48107 12.6338C5.32108 12.3962 4.96112 12.3962 4.76114 12.6338L0.121608 18.3764C0.00162051 18.5348 -0.0383754 18.7328 0.0416165 18.8516C0.121608 19.0496 0.321588 19.1288 0.481572 19.1288H2.72134C4.96112 24.4358 10.3206 28.0001 16.12 28.0001C22.0394 28.0001 27.4788 24.3566 29.6386 18.8516C29.6386 18.812 29.6386 18.812 29.6386 18.7724C29.6386 18.7328 29.6786 18.7328 29.6786 18.6932C29.6786 18.6536 29.6386 18.614 29.6386 18.5744C29.6386 18.5348 29.6386 18.4556 29.5986 18.416Z" fill="#D3D3D9"/>
<path id="Vector_2" d="M31.5583 8.87129H29.2786C27.0388 3.60396 21.6793 0 15.8799 0C9.96052 0 4.52107 3.68317 2.36128 9.14852C2.32129 9.18812 2.36128 9.22773 2.36128 9.26733C2.36128 9.30693 2.32129 9.30693 2.32129 9.34654C2.32129 9.38614 2.36128 9.38614 2.36128 9.42575C2.36128 9.50495 2.40128 9.54456 2.44128 9.62376L2.56126 9.74258C2.60126 9.74258 2.60126 9.78218 2.64126 9.82178C2.68125 9.82178 2.68125 9.78218 2.72125 9.82178C2.76124 9.82178 2.80124 9.82178 2.80124 9.82178H7.00082C7.04081 9.82178 7.04081 9.82178 7.08081 9.82178C7.1608 9.82178 7.2008 9.78218 7.24079 9.74258C7.32078 9.70297 7.36078 9.70297 7.40077 9.62376C7.40077 9.62376 7.44077 9.62376 7.44077 9.58416C9.20059 6.61386 12.4803 4.71287 15.9199 4.71287C19.1196 4.71287 22.0393 6.33664 23.8791 8.87129H22.2793C22.1193 8.87129 21.9193 8.9901 21.8793 9.18812C21.7993 9.34654 21.8393 9.54456 21.9593 9.66337L26.5988 15.4455C26.6788 15.5644 26.8388 15.604 26.9588 15.604C27.1188 15.604 27.2788 15.5644 27.3588 15.4455L31.8783 9.66337C31.9983 9.50495 32.0383 9.30693 31.9583 9.18812C31.8783 8.9901 31.6783 8.87129 31.5583 8.87129Z" fill="#D3D3D9"/>
</g>
</svg>
