<svg width="28" height="28" viewBox="0 0 28 28" fill="none" xmlns="http://www.w3.org/2000/svg">
<g id="Group 594">
<path id="Vector" d="M15.126 13.1337H12.0342V9.2373H15.0759C15.6388 9.2373 16.131 9.39056 16.5496 9.69709C16.9681 10.0036 17.1773 10.4781 17.1773 11.1236C17.1773 11.7101 16.9946 12.1906 16.6262 12.5678C16.2578 12.9451 15.7597 13.1337 15.126 13.1337Z" fill="#D3D3D9"/>
<path id="Vector_2" d="M16.9445 15.7094C17.3542 16.0897 17.5575 16.573 17.5575 17.1654C17.5575 17.7815 17.3571 18.2737 16.9563 18.6391C16.5525 19.0016 16.0072 19.1844 15.3117 19.1844H12.0342V15.1436H15.3234C15.9954 15.1436 16.5377 15.3322 16.9445 15.7094Z" fill="#D3D3D9"/>
<path id="Vector_3" d="M14 0C6.26906 0 0 6.26906 0 14C0 21.7309 6.26906 28 14 28C21.731 28 28 21.7309 28 14C28 6.26906 21.731 0 14 0ZM19.0695 20.1895C18.3916 20.8939 17.36 21.2594 15.9865 21.2918V22.5091C15.9865 22.6918 15.8362 22.8421 15.6505 22.8421H14.5158C14.3301 22.8421 14.1827 22.6918 14.1827 22.5091V21.2977H12.541V22.5091C12.541 22.6918 12.3937 22.8421 12.208 22.8421H11.0733C10.8876 22.8421 10.7373 22.6918 10.7373 22.5091V21.2977H10.0594C9.82358 21.2977 9.632 21.1061 9.632 20.8703V7.65431C9.632 7.41852 9.82358 7.2299 10.0594 7.2299H10.7373V5.49095C10.7373 5.30821 10.8876 5.15789 11.0703 5.15789H12.208C12.3937 5.15789 12.541 5.30821 12.541 5.49095V7.2299H14.1827V5.49095C14.1827 5.30821 14.3301 5.15789 14.5158 5.15789H15.6505C15.8362 5.15789 15.9865 5.30821 15.9865 5.49095V7.26232C16.5347 7.30359 17.0152 7.38905 17.4248 7.51579C18.0349 7.71031 18.5655 8.11116 19.0135 8.7242C19.4585 9.33431 19.6825 10.0535 19.6825 10.8758C19.6825 11.6539 19.4556 12.3288 19.0017 12.9036C18.5478 13.4754 17.9229 13.8408 17.1272 14C18.1145 14.171 18.8632 14.5747 19.3731 15.2055C19.88 15.8392 20.1364 16.5878 20.1364 17.4514C20.1364 18.539 19.7798 19.4497 19.0695 20.1895Z" fill="#D3D3D9"/>
</g>
</svg>
