<svg width="19" height="24" viewBox="0 0 19 24" fill="none" xmlns="http://www.w3.org/2000/svg">
<path d="M18.1364 2.95652C18.6133 2.95652 19 3.34584 19 3.82609C19 4.30633 18.6133 4.69565 18.1364 4.69565H18.1242C18.0288 4.69565 17.9486 4.77179 17.945 4.87024L17.3232 21.7739C17.2778 23.008 16.2533 24 15.0273 24H3.97274C2.74605 24 1.72211 23.0061 1.67678 21.7739L1.05499 4.87024C1.05144 4.77382 0.973348 4.69565 0.87577 4.69565H0.863636C0.386663 4.69565 0 4.30633 0 3.82609C0 3.34584 0.386663 2.95652 0.863636 2.95652H5.07417C5.16905 2.95652 5.26753 2.88052 5.29306 2.79056L5.57467 1.79815C5.86357 0.780048 6.89083 0 7.94252 0H11.0575C12.1093 0 13.1364 0.779768 13.4253 1.79815L13.7069 2.79056C13.733 2.88222 13.8301 2.95652 13.9258 2.95652H18.1364ZM8.80909 7.82609V19.6522C8.80909 20.0364 9.11842 20.3478 9.5 20.3478C9.88158 20.3478 10.1909 20.0364 10.1909 19.6522V7.82609C10.1909 7.44189 9.88158 7.13043 9.5 7.13043C9.11842 7.13043 8.80909 7.44189 8.80909 7.82609ZM5.00939 7.84654L5.35484 19.6726C5.36606 20.0567 5.68435 20.3588 6.06577 20.3475C6.44718 20.3362 6.74728 20.0158 6.73606 19.6317L6.39061 7.80563C6.37939 7.4216 6.0611 7.11944 5.67969 7.13074C5.29827 7.14203 4.99817 7.46251 5.00939 7.84654ZM12.6094 7.80563L12.2639 19.6317C12.2527 20.0158 12.5528 20.3362 12.9342 20.3475C13.3156 20.3588 13.6339 20.0567 13.6452 19.6726L13.9906 7.84654C14.0018 7.46251 13.7017 7.14203 13.3203 7.13074C12.9389 7.11944 12.6206 7.4216 12.6094 7.80563ZM7.21729 2.95652H11.7827C11.8804 2.95652 11.9367 2.88276 11.9109 2.79177L11.7645 2.27592C11.6874 2.00426 11.3382 1.73913 11.0575 1.73913H7.94252C7.66196 1.73913 7.31251 2.00449 7.23548 2.27592L7.0891 2.79177C7.06302 2.88369 7.12067 2.95652 7.21729 2.95652Z" fill="#E95D5C"/>
</svg>
