<svg width="33" height="28" viewBox="0 0 33 28" fill="none" xmlns="http://www.w3.org/2000/svg">
<g id="Group">
<path id="Compound Path" d="M29.8538 7.89648H3.14619C2.31177 7.89648 1.51152 8.22345 0.921497 8.80546C0.331472 9.38747 0 10.1768 0 10.9999V24.8965C0 25.7196 0.331472 26.5089 0.921497 27.0909C1.51152 27.673 2.31177 27.9999 3.14619 27.9999H29.8538C30.6882 27.9999 31.4885 27.673 32.0785 27.0909C32.6685 26.5089 33 25.7196 33 24.8965V10.9999C33 10.1768 32.6685 9.38747 32.0785 8.80546C31.4885 8.22345 30.6882 7.89648 29.8538 7.89648ZM6.04767 25.931H3.14619C2.86805 25.931 2.6013 25.822 2.40462 25.628C2.20795 25.434 2.09746 25.1708 2.09746 24.8965V22.1379H2.34216C2.82878 22.1379 3.31062 22.2324 3.7602 22.4161C4.20977 22.5998 4.61826 22.869 4.96235 23.2084C5.30644 23.5478 5.57939 23.9508 5.7656 24.3943C5.95182 24.8377 6.04767 25.313 6.04767 25.793V25.931ZM6.04767 10.1034C6.03846 11.0668 5.64399 11.9877 4.95007 12.6657C4.25615 13.3438 3.3189 13.7241 2.34216 13.7241H2.09746V10.9654C2.09746 10.6911 2.20795 10.428 2.40462 10.234C2.6013 10.04 2.86805 9.93097 3.14619 9.93097H6.04767V10.1034ZM16.5 23.6206C15.3592 23.6206 14.244 23.2869 13.2955 22.6617C12.3469 22.0366 11.6076 21.1479 11.1711 20.1083C10.7345 19.0687 10.6203 17.9247 10.8428 16.821C11.0654 15.7173 11.6147 14.7035 12.4214 13.9078C13.2281 13.1121 14.2558 12.5702 15.3747 12.3506C16.4936 12.1311 17.6534 12.2438 18.7073 12.6744C19.7613 13.105 20.6621 13.8343 21.2959 14.77C21.9297 15.7056 22.268 16.8057 22.268 17.931C22.268 18.6781 22.1188 19.418 21.8289 20.1083C21.5391 20.7986 21.1142 21.4258 20.5786 21.9542C20.043 22.4825 19.4071 22.9016 18.7073 23.1875C18.0075 23.4735 17.2575 23.6206 16.5 23.6206ZM30.9025 24.8965C30.9025 25.1708 30.7921 25.434 30.5954 25.628C30.3987 25.822 30.132 25.931 29.8538 25.931H26.9523V25.793C26.9523 25.313 27.0482 24.8377 27.2344 24.3943C27.4206 23.9508 27.6936 23.5478 28.0376 23.2084C28.3817 22.869 28.7902 22.5998 29.2398 22.4161C29.6894 22.2324 30.1712 22.1379 30.6578 22.1379H30.9025V24.8965ZM30.9025 13.7586H30.6578C30.1712 13.7586 29.6894 13.664 29.2398 13.4803C28.7902 13.2966 28.3817 13.0274 28.0376 12.688C27.6936 12.3486 27.4206 11.9456 27.2344 11.5022C27.0482 11.0587 26.9523 10.5834 26.9523 10.1034V9.96545H29.8538C30.132 9.96545 30.3987 10.0744 30.5954 10.2684C30.7921 10.4624 30.9025 10.7256 30.9025 10.9999V13.7586Z" fill="#D3D3D9"/>
<path id="Compound Path_2" d="M18.9471 18.4484C18.8099 18.1933 18.6193 17.97 18.3878 17.7932C18.1552 17.6072 17.8961 17.4562 17.6187 17.3449L17.409 17.2759L16.8846 17.1035V15.1725C16.9794 15.1738 17.0726 15.1962 17.1573 15.238C17.2421 15.2798 17.3161 15.3399 17.374 15.4139C17.5377 15.6203 17.6241 15.876 17.6187 16.138V16.2415H18.9821V16.138C18.9939 15.8188 18.9342 15.5009 18.8073 15.207C18.6951 14.9557 18.528 14.7319 18.3179 14.5518C18.1012 14.3785 17.8516 14.2495 17.5838 14.1725C17.3699 14.0963 17.1464 14.0499 16.9196 14.0346V13.3794H16.0806V14.0346C15.5618 14.065 15.0635 14.2448 14.6473 14.5518C14.4254 14.7291 14.2463 14.9529 14.123 15.207C13.9846 15.4861 13.9128 15.7928 13.9132 16.1035C13.9045 16.4372 13.9764 16.7682 14.123 17.069C14.2593 17.3247 14.4501 17.5482 14.6823 17.7242C14.9171 17.898 15.1761 18.0374 15.4514 18.138L15.6611 18.207L16.1156 18.3794V20.6208C15.9799 20.6208 15.8461 20.5896 15.7247 20.5298C15.6034 20.4699 15.4978 20.383 15.4164 20.2759C15.2296 19.9893 15.1436 19.65 15.1717 19.3104V19.207H13.7384V19.3104C13.7282 19.6632 13.7876 20.0145 13.9132 20.3449C14.0302 20.6323 14.2092 20.8911 14.4376 21.1035C14.6691 21.3172 14.9428 21.4816 15.2416 21.5863C15.51 21.6882 15.7933 21.7464 16.0806 21.7587V22.4484H16.9196V21.7587C17.1829 21.7374 17.4418 21.6793 17.6886 21.5863C17.9722 21.4877 18.2334 21.3354 18.4577 21.138C18.667 20.9436 18.8336 20.7089 18.9471 20.4484C19.0883 20.1214 19.1597 19.7693 19.1569 19.4139C19.167 19.0801 19.095 18.7488 18.9471 18.4484ZM16.0806 16.8966H16.0456L15.9058 16.8277L15.5912 16.6553L15.3814 16.3794C15.3298 16.2719 15.3058 16.1534 15.3115 16.0346C15.2961 15.9088 15.3101 15.7812 15.3525 15.6617C15.395 15.5421 15.4646 15.4337 15.5562 15.3449C15.7137 15.2158 15.9108 15.1428 16.1156 15.138L16.0806 16.8966ZM17.5139 20.3794C17.347 20.5262 17.1406 20.622 16.9196 20.6553V18.5863H16.9895L17.1293 18.6553L17.4789 18.8622C17.5946 18.9437 17.6874 19.053 17.7486 19.1797C17.8097 19.3063 17.8372 19.4463 17.8285 19.5863C17.8367 19.7362 17.8094 19.8859 17.7487 20.0236C17.6881 20.1613 17.5957 20.2831 17.4789 20.3794H17.5139Z" fill="#D3D3D9"/>
<path id="Path" d="M3.14624 5.10333C3.14624 5.37769 3.25673 5.64082 3.45341 5.83482C3.65008 6.02882 3.91683 6.13781 4.19497 6.13781H28.8051C29.0833 6.13781 29.35 6.02882 29.5467 5.83482C29.7434 5.64082 29.8539 5.37769 29.8539 5.10333C29.8539 4.82897 29.7434 4.56584 29.5467 4.37184C29.35 4.17784 29.0833 4.06885 28.8051 4.06885H4.19497C3.91683 4.06885 3.65008 4.17784 3.45341 4.37184C3.25673 4.56584 3.14624 4.82897 3.14624 5.10333Z" fill="#D3D3D9"/>
<path id="Path_2" d="M25.3092 2.06896C25.5874 2.06896 25.8541 1.95998 26.0508 1.76597C26.2475 1.57197 26.3579 1.30884 26.3579 1.03448C26.3579 0.760121 26.2475 0.496996 26.0508 0.302993C25.8541 0.10899 25.5874 5.78174e-09 25.3092 0H7.69057C7.41243 5.78174e-09 7.14569 0.10899 6.94901 0.302993C6.75234 0.496996 6.64185 0.760121 6.64185 1.03448C6.64185 1.30884 6.75234 1.57197 6.94901 1.76597C7.14569 1.95998 7.41243 2.06896 7.69057 2.06896H25.3092Z" fill="#D3D3D9"/>
</g>
</svg>
