<svg width="30" height="30" viewBox="0 0 30 30" fill="none" xmlns="http://www.w3.org/2000/svg">
<g id="Frame 1665">
<path id="Vector" d="M13.2253 1.74007C13.8375 1.22197 14.6148 0.9375 15.4183 0.9375C16.2218 0.9375 16.9991 1.22197 17.6112 1.74007L27.7687 10.335C28.1425 10.6514 28.4429 11.045 28.6488 11.4884C28.8548 11.9318 28.9615 12.4145 28.9615 12.903V26.3446C28.9615 27.0323 28.6871 27.6918 28.1987 28.1781C27.7103 28.6643 27.0478 28.9375 26.3571 28.9375H21.1523C20.4615 28.9375 19.7991 28.6643 19.3106 28.1781C18.8222 27.6918 18.5478 27.0323 18.5478 26.3446V19.0845C18.5478 18.947 18.4929 18.815 18.3952 18.7178C18.2975 18.6205 18.1651 18.5659 18.0269 18.5659H12.8138C12.6756 18.5659 12.5431 18.6205 12.4455 18.7178C12.3478 18.815 12.2929 18.947 12.2929 19.0845V26.3446C12.2929 27.0323 12.0185 27.6918 11.5301 28.1781C11.0416 28.6643 10.3792 28.9375 9.68842 28.9375H4.47947C3.78872 28.9375 3.12627 28.6643 2.63783 28.1781C2.1494 27.6918 1.875 27.0323 1.875 26.3446V12.903C1.87503 12.4145 1.98172 11.9318 2.18769 11.4884C2.39365 11.045 2.69397 10.6514 3.06785 10.335L13.2253 1.74007Z" fill="#D3D3D9"/>
</g>
</svg>
