<svg width="21" height="16" viewBox="0 0 21 16" fill="none" xmlns="http://www.w3.org/2000/svg">
<g id="Group">
<path id="Vector" d="M19.8815 0.000900219C19.6017 0.0103277 19.3364 0.135112 19.1419 0.348762L6.90588 13.3356L1.7375 9.09883C1.62559 9.00617 1.49751 8.93794 1.36065 8.89805C1.22378 8.85817 1.08082 8.84742 0.940024 8.86643C0.799225 8.88545 0.663363 8.93384 0.540264 9.00883C0.417166 9.08382 0.309266 9.18394 0.222781 9.30339C0.136296 9.42283 0.0729365 9.55927 0.0363519 9.70482C-0.000232779 9.85037 -0.00931869 10.0022 0.00961754 10.1515C0.0285538 10.3008 0.0751379 10.4446 0.146686 10.5747C0.218234 10.7048 0.313331 10.8186 0.426498 10.9095L6.34284 15.7617C6.55021 15.9318 6.80894 16.0157 7.07045 15.9976C7.33195 15.9795 7.57825 15.8608 7.76311 15.6636L20.6715 1.9632C20.8283 1.80246 20.9354 1.59495 20.9787 1.36815C21.0219 1.14135 20.9991 0.905959 20.9135 0.693175C20.8278 0.480391 20.6833 0.300252 20.499 0.176626C20.3147 0.0529987 20.0993 -0.00828515 19.8815 0.000900219Z" fill="#067DFF"/>
</g>
</svg>
